{"glyphs":{":":{"x_min":0,"x_max":250,"ha":250,"o":"m 125 453 q 149 453 166 436 q 183 419 183 395 q 183 371 166 354 q 149 336 125 336 q 101 336 83 354 q 66 371 66 395 q 66 420 84 437 q 101 453 125 453 z m 125 108 q 148 108 166 91 q 183 75 183 49 q 183 25 166 8 q 149 -9 125 -9 q 101 -9 83 8 q 66 25 66 49 q 66 74 83 91 q 101 108 125 108 z"},"$":{"x_min":0,"x_max":500,"ha":500,"o":"m 28 29 q 37 83 42 168 l 46 172 l 68 172 l 72 168 q 74 92 75 81 q 105 51 137 36 q 169 20 218 20 l 218 296 q 167 304 135 312 q 104 321 78 342 q 52 363 40 393 q 28 422 28 460 q 28 534 74 591 q 121 649 218 664 q 218 711 216 726 l 221 730 l 256 730 l 261 726 q 260 722 259 666 q 377 657 422 626 l 424 620 q 420 604 418 591 q 416 578 414 554 l 410 503 l 406 499 l 386 499 l 382 502 q 380 550 374 583 q 333 629 259 630 l 259 373 q 319 364 354 355 q 390 345 416 325 q 442 306 455 277 q 468 248 468 210 q 468 152 442 104 q 417 56 375 28 q 334 0 259 -15 q 260 -90 262 -112 l 257 -116 l 221 -116 l 216 -112 q 217 -96 218 -17 q 115 -15 32 22 z m 218 628 q 188 625 164 612 q 140 600 122 569 q 104 538 104 492 q 104 430 138 406 q 171 383 218 378 z m 259 22 q 315 24 352 67 q 389 110 389 172 q 389 221 362 250 q 335 280 259 292 z"},"?":{"x_min":0,"x_max":444,"ha":444,"o":"m 188 171 q 148 202 148 245 q 148 273 163 299 q 177 325 226 380 q 265 423 284 455 q 302 487 302 518 q 302 566 267 598 q 231 630 180 630 q 151 630 117 617 q 104 604 93 581 l 74 543 l 68 540 l 47 542 l 44 549 l 82 662 q 139 699 206 699 q 258 699 301 680 q 344 662 369 625 q 394 587 394 541 q 394 510 384 483 q 374 457 354 431 q 335 405 280 356 q 246 326 227 306 q 209 287 200 268 q 190 250 190 235 q 190 209 210 188 l 209 181 l 196 171 z m 198 108 q 222 108 239 91 q 256 74 256 49 q 256 25 239 8 q 222 -9 198 -9 q 174 -9 156 8 q 139 25 139 49 q 139 74 157 91 q 174 108 198 108 z"},"<":{"x_min":0,"x_max":500,"ha":500,"o":"m 485 57 l 15 284 l 15 333 l 485 561 l 485 499 l 87 309 l 485 118 z"},"'":{"x_min":0,"x_max":208,"ha":208,"o":"m 94 469 l 64 642 q 60 667 60 671 q 60 686 72 697 q 84 708 104 708 q 124 708 136 697 q 148 686 148 672 q 148 667 144 642 l 114 469 z"},"=":{"x_min":0,"x_max":500,"ha":500,"o":"m 485 355 l 15 355 l 15 410 l 485 410 z m 485 207 l 15 207 l 15 262 l 485 262 z"},"a":{"x_min":0,"x_max":500,"ha":500,"o":"m 104 331 l 84 336 l 81 341 l 81 401 q 167 466 250 466 q 306 466 343 445 q 380 424 396 392 q 413 361 413 319 l 411 221 l 411 75 q 411 45 415 39 q 419 33 424 31 q 430 28 444 27 l 472 24 l 476 20 l 476 0 l 472 -3 q 437 0 406 0 q 376 0 335 -3 l 328 3 l 330 82 l 224 -1 q 197 -12 165 -12 q 126 -12 98 2 q 70 16 55 42 q 40 67 40 103 q 40 175 85 215 q 130 255 330 284 q 330 356 298 385 q 266 415 211 415 q 183 415 160 407 q 137 398 133 393 q 130 388 107 333 z m 330 254 q 193 231 160 205 q 126 178 126 123 q 126 47 202 47 q 267 47 330 122 z m 247 496 z m 237 -29 z"},"L":{"x_min":0,"x_max":611,"ha":611,"o":"m 18 687 l 22 690 q 143 686 162 686 q 178 686 302 690 l 306 687 l 306 662 l 302 659 q 268 658 250 656 q 231 654 223 648 q 215 643 212 623 q 209 604 209 568 l 208 456 l 208 240 q 208 159 209 127 l 212 42 l 312 42 q 431 42 460 45 q 490 48 517 60 q 522 72 532 116 q 542 160 543 167 l 547 170 l 571 170 l 575 167 q 571 147 567 91 q 562 35 562 0 l 559 -4 q 466 -1 315 -1 l 172 0 q 124 0 73 -4 l 69 0 l 69 16 l 73 21 q 103 37 106 40 q 109 43 112 103 q 115 163 115 247 l 115 456 l 114 551 q 114 607 112 623 q 109 639 105 645 q 100 650 87 653 q 74 657 22 659 l 18 662 z"},"3":{"x_min":0,"x_max":500,"ha":500,"o":"m 51 11 q 42 69 18 150 l 21 157 l 39 164 l 45 161 q 62 116 82 86 q 102 57 138 42 q 175 26 217 26 q 271 26 302 48 q 334 71 351 109 q 368 148 368 196 q 368 261 334 298 q 300 335 240 335 q 220 335 204 332 q 188 328 154 314 l 148 319 l 159 372 q 199 370 212 370 q 269 370 302 410 q 336 451 336 506 q 336 554 301 587 q 266 620 215 620 q 181 620 151 606 q 121 592 102 573 q 93 556 75 507 l 70 503 l 48 503 l 44 507 l 74 621 q 135 689 239 689 q 319 689 368 647 q 417 605 417 541 q 417 492 388 451 q 359 411 308 375 q 393 364 427 324 q 461 284 461 227 q 461 133 376 58 q 292 -17 180 -17 q 147 -17 118 -11 q 89 -6 51 11 z"},";":{"x_min":0,"x_max":250,"ha":250,"o":"m 143 453 q 167 453 184 436 q 201 418 201 395 q 201 371 184 354 q 167 336 143 336 q 118 336 101 354 q 84 371 84 395 q 84 419 101 436 q 119 453 143 453 z m 10 -142 q 40 -92 53 -66 q 67 -40 77 -12 q 87 16 90 31 q 93 46 99 94 q 102 94 132 102 q 162 109 199 124 l 211 109 q 149 -35 64 -135 l 23 -153 z"},"J":{"x_min":0,"x_max":333,"ha":333,"o":"m 310 687 l 310 662 l 307 659 q 272 658 254 656 q 236 654 228 648 q 219 643 217 623 q 214 604 214 568 l 213 456 l 213 105 q 213 28 199 -21 q 186 -70 151 -112 q 117 -153 81 -174 q 44 -194 9 -194 q -1 -194 -12 -191 q -11 -172 -10 -152 q -10 -140 -12 -116 l -2 -110 q 22 -128 50 -128 q 74 -128 89 -119 q 104 -110 111 -95 q 117 -80 119 -39 q 120 2 120 32 l 120 456 l 119 551 q 119 607 116 623 q 114 639 109 645 q 104 650 92 653 q 79 657 26 659 l 23 662 l 23 687 l 26 690 q 150 686 167 686 q 184 686 307 690 z"},"V":{"x_min":0,"x_max":722,"ha":722,"o":"m 336 -9 q 329 13 275 155 l 109 566 q 81 636 73 646 q 66 655 15 659 l 10 663 l 10 686 l 15 690 q 89 686 142 686 q 190 686 271 690 l 275 686 l 275 659 l 271 655 q 212 655 200 652 q 189 648 189 638 q 189 632 205 586 q 220 540 232 508 l 385 122 l 513 442 q 526 475 551 547 q 577 620 577 635 q 577 647 565 650 q 553 654 493 659 l 489 663 l 489 686 l 493 690 q 579 686 602 686 q 621 686 701 690 l 705 686 l 705 663 l 701 659 q 666 657 658 653 q 651 649 645 638 q 640 627 610 561 l 458 186 q 407 61 385 -9 z"},"\"":{"x_min":0,"x_max":371,"ha":371,"o":""},"7":{"x_min":0,"x_max":500,"ha":500,"o":"m 66 -4 l 56 6 q 73 33 128 120 l 218 262 l 302 399 l 375 525 q 398 566 412 592 l 407 597 l 256 597 q 199 597 154 595 q 110 593 102 589 q 94 585 91 580 q 88 575 84 543 l 75 474 l 71 470 l 50 470 l 46 474 l 48 608 q 48 631 46 679 l 56 684 q 83 681 165 677 q 247 674 275 674 q 374 674 491 681 l 495 677 l 495 651 l 425 527 q 361 413 279 256 q 197 100 159 0 l 154 -4 q 126 -1 112 -1 q 90 -1 66 -4 z"},"S":{"x_min":0,"x_max":525,"ha":525,"o":"m 39 168 l 42 172 l 66 172 l 70 168 q 73 105 77 92 q 81 78 103 62 q 125 47 162 37 q 199 27 237 27 q 289 27 330 46 q 371 65 394 102 q 417 139 417 185 q 417 217 406 241 q 395 265 375 280 q 355 294 330 301 q 305 308 254 316 q 206 324 178 331 q 150 337 123 350 q 96 363 77 384 q 59 404 48 433 q 37 463 37 497 q 37 588 101 646 q 164 705 271 705 q 313 705 364 694 q 414 684 455 663 l 458 657 q 447 612 445 529 l 440 525 l 415 525 l 411 529 q 410 587 408 603 q 406 618 364 640 q 321 663 271 663 q 230 663 194 646 q 158 629 139 594 q 121 558 121 521 q 121 492 132 470 q 143 448 161 435 q 179 422 202 416 q 226 409 289 400 q 375 388 415 370 q 454 353 478 315 q 501 278 501 225 q 501 121 417 51 q 332 -18 211 -18 q 110 -18 34 18 l 31 24 q 36 55 39 168 z"},"}":{"x_min":0,"x_max":333,"ha":333,"o":"m 275 269 q 248 269 228 251 q 210 236 204 215 q 198 195 198 152 l 198 -17 q 198 -111 170 -141 q 139 -174 44 -174 l 44 -162 q 89 -162 106 -134 q 125 -103 125 -44 l 125 137 q 125 197 140 225 q 157 259 208 274 q 159 289 140 324 q 125 353 125 410 l 125 595 q 125 659 106 687 q 86 714 44 714 l 44 727 q 104 727 133 715 q 176 698 190 650 q 198 621 198 579 l 198 394 q 198 346 212 318 q 230 281 275 281 z"},"Z":{"x_min":0,"x_max":667,"ha":667,"o":"m 18 0 l 18 24 l 135 169 l 414 528 q 478 609 500 645 l 479 645 l 401 645 q 297 645 234 642 q 171 639 151 635 q 130 632 126 626 q 121 620 118 597 l 111 532 l 107 528 l 84 528 l 80 532 q 82 569 82 591 q 82 651 80 686 l 84 690 q 258 686 328 686 q 443 686 630 690 l 635 686 l 635 661 q 581 597 560 570 l 153 46 l 351 42 q 410 42 470 45 q 530 48 549 51 q 568 54 575 60 q 582 65 584 71 q 587 77 592 104 l 603 170 l 607 174 l 630 174 l 634 170 q 631 139 627 0 l 623 -4 q 417 0 298 0 q 214 0 22 -4 z"},"x":{"x_min":0,"x_max":516,"ha":516,"o":"m 21 -3 l 18 1 l 18 21 l 22 24 q 40 25 52 30 q 63 35 79 52 q 96 68 137 119 l 216 216 l 174 278 q 165 292 136 332 q 107 372 87 392 q 68 412 58 417 q 49 422 39 422 q 35 422 27 421 l 22 425 l 19 444 l 22 449 q 72 455 132 468 q 166 440 232 337 l 268 280 l 299 319 q 334 366 399 458 q 422 455 436 455 q 448 455 470 458 l 474 455 l 474 435 l 470 431 q 454 430 446 426 q 439 423 419 404 q 400 385 367 345 l 338 310 q 329 300 321 289 l 291 250 l 309 222 q 321 205 367 140 q 414 75 433 53 q 452 32 460 28 q 468 24 486 24 l 490 21 l 490 0 l 486 -3 q 450 0 431 0 q 425 0 368 -3 q 328 47 288 109 l 238 185 q 188 127 103 -3 q 70 0 63 0 q 54 0 21 -3 z"},")":{"x_min":0,"x_max":333,"ha":333,"o":"m 61 -231 l 55 -230 l 36 -214 l 36 -208 q 121 -107 155 -3 q 188 101 188 247 q 188 512 36 676 l 36 681 l 51 700 l 57 701 q 132 646 203 524 q 274 403 274 236 q 274 102 220 -20 q 166 -141 61 -231 z"},"&":{"x_min":0,"x_max":778,"ha":778,"o":"m 748 49 q 708 21 666 -14 q 650 -18 632 -18 q 588 -18 544 0 q 500 19 451 59 q 387 11 343 -3 q 299 -18 249 -18 q 150 -18 97 41 q 45 101 45 177 q 45 308 198 391 q 169 461 169 518 q 169 542 176 563 q 182 584 190 596 q 199 607 219 625 q 240 643 259 659 q 278 675 295 681 q 312 688 333 688 q 377 688 400 662 q 423 637 423 596 q 423 494 281 397 q 312 335 374 258 q 436 180 483 143 q 533 198 533 263 q 533 289 527 307 q 521 325 511 331 q 501 337 476 337 q 450 337 424 338 l 419 344 l 451 391 q 480 386 535 386 q 563 386 622 389 q 682 391 734 391 l 739 386 q 731 357 729 327 l 724 323 q 668 333 603 333 q 601 333 588 332 q 594 312 594 289 q 594 203 513 120 q 602 56 688 56 q 701 56 710 59 q 720 62 740 74 l 746 71 l 750 56 z m 265 431 q 305 459 331 497 q 356 535 356 570 q 356 594 342 614 q 327 634 303 634 q 278 634 259 614 q 239 593 239 551 q 239 504 265 431 z m 419 84 q 329 180 289 235 q 250 289 214 353 q 166 318 148 283 q 131 248 131 211 q 131 144 179 91 q 228 39 297 39 q 360 39 419 84 z"},"_":{"x_min":0,"x_max":500,"ha":500,"o":"m 0 -160 l 0 -102 l 500 -102 l 500 -160 z"},"v":{"x_min":0,"x_max":565,"ha":565,"o":"m 249 -9 l 219 68 l 183 151 l 83 384 q 73 407 65 415 q 58 422 50 423 q 42 425 19 426 l 15 430 l 15 451 l 19 455 q 87 452 127 452 q 184 452 241 455 l 245 451 l 245 430 l 241 426 q 190 424 182 419 q 174 413 174 404 q 174 390 193 341 l 253 193 l 300 82 l 349 193 l 389 293 q 413 351 419 375 q 426 398 426 406 q 426 416 416 420 q 405 424 361 426 l 357 430 l 357 451 l 362 455 q 422 452 453 452 q 478 452 540 455 l 544 451 l 544 430 l 540 426 q 511 423 502 417 q 492 412 483 395 q 474 378 431 290 l 384 190 q 373 165 300 -9 z"},"O":{"x_min":0,"x_max":786,"ha":786,"o":"m 23 336 q 23 410 44 473 q 65 537 116 591 q 167 645 238 674 q 309 704 399 704 q 565 704 664 613 q 763 522 763 366 q 763 255 714 167 q 666 80 576 31 q 486 -18 374 -18 q 294 -18 227 9 q 160 35 113 88 q 66 141 45 210 q 23 279 23 336 z m 125 369 q 125 309 144 240 q 164 172 202 123 q 240 74 290 50 q 340 26 404 26 q 480 26 539 61 q 598 95 629 168 q 660 241 660 332 q 660 431 625 510 q 589 590 524 626 q 459 662 380 662 q 262 662 193 588 q 125 514 125 369 z m 386 726 z m 388 -29 z"},"(":{"x_min":0,"x_max":333,"ha":333,"o":"m 272 -231 q 170 -145 115 -23 q 59 98 59 236 q 59 349 90 436 q 122 523 177 597 q 233 670 276 701 l 282 700 l 297 681 l 297 676 q 145 512 145 247 q 145 101 178 -3 q 212 -107 297 -208 l 296 -214 l 278 -230 z"},"C":{"x_min":0,"x_max":709,"ha":709,"o":"m 681 83 l 663 37 q 554 -18 431 -18 q 255 -18 145 82 q 35 182 35 344 q 35 455 90 538 q 145 622 235 663 q 325 704 437 704 q 502 704 565 690 q 629 677 671 658 l 675 653 q 664 625 654 518 l 650 514 l 627 514 l 624 518 l 619 601 q 583 629 532 645 q 482 661 427 661 q 345 661 279 625 q 214 590 178 523 q 142 456 142 358 q 142 261 184 187 q 227 113 300 74 q 374 34 472 34 q 515 34 555 42 q 595 51 622 63 q 648 75 673 93 z"},"W":{"x_min":0,"x_max":1000,"ha":1000,"o":"m 230 -9 l 186 194 l 91 596 q 80 644 68 650 q 56 655 15 660 l 11 664 l 11 686 l 15 690 q 85 686 140 686 q 180 686 258 690 l 262 686 l 262 664 l 258 660 q 204 658 193 655 q 182 651 182 639 q 182 628 192 574 q 202 520 209 485 l 286 147 l 407 447 q 454 566 500 697 l 531 697 q 570 574 612 459 l 727 141 l 810 432 q 822 478 841 553 q 859 627 859 639 q 859 652 847 656 q 835 659 777 660 l 773 665 l 773 686 l 777 690 q 860 686 877 686 q 893 686 979 690 l 982 686 l 982 664 l 979 661 q 951 660 941 656 q 932 651 925 643 q 918 634 906 593 l 877 502 l 827 337 q 816 302 788 193 l 733 -9 l 684 -9 q 633 142 600 233 l 488 534 l 391 293 l 339 156 q 318 102 306 68 l 279 -9 z"},"A":{"x_min":0,"x_max":778,"ha":778,"o":"m 21 -4 l 17 0 l 17 25 l 21 29 q 57 30 67 33 q 78 36 86 46 q 94 55 118 108 l 169 219 l 302 520 q 340 608 377 697 l 409 697 l 617 207 l 645 141 q 657 113 673 81 q 689 48 695 42 q 701 36 710 33 q 719 30 750 29 l 754 25 l 754 0 l 750 -4 q 699 0 657 0 q 576 -2 495 -4 l 491 0 l 491 25 l 495 29 q 550 30 563 34 q 577 38 577 51 q 577 62 570 79 l 510 228 l 228 228 l 174 103 q 160 69 160 54 q 160 42 173 36 q 187 30 240 29 l 244 25 l 244 0 l 240 -4 q 177 0 130 0 q 76 0 21 -4 z m 244 270 l 491 270 l 369 564 z m 392 726 z m 381 -29 z"},"f":{"x_min":0,"x_max":333,"ha":333,"o":"m 281 25 l 285 21 l 285 0 l 281 -4 q 266 -4 224 -2 q 186 0 146 0 q 93 0 28 -4 l 24 0 l 24 21 l 28 25 q 75 28 82 29 q 88 31 92 35 q 97 40 98 50 q 100 59 102 113 q 104 166 104 193 l 104 382 l 42 378 l 37 382 l 37 395 l 41 399 l 104 432 l 104 461 q 104 510 109 535 q 113 561 125 582 q 137 603 167 635 q 197 668 219 689 q 242 709 258 717 q 275 724 297 724 q 316 724 337 716 l 337 636 l 326 632 q 298 656 262 656 q 237 656 218 646 q 200 635 193 612 q 186 588 186 533 l 186 432 l 238 432 q 279 432 315 435 l 319 430 l 311 387 l 306 382 q 292 382 287 382 l 224 383 l 186 383 l 186 186 q 186 170 188 115 q 190 59 192 49 q 194 39 199 35 q 204 30 214 28 q 225 26 281 25 z"},"Q":{"x_min":0,"x_max":786,"ha":786,"o":"m 264 -123 l 264 -101 l 267 -95 q 345 -35 391 -18 q 263 -18 187 25 q 111 68 67 154 q 23 240 23 344 q 23 502 128 603 q 233 704 399 704 q 507 704 589 664 q 672 625 717 548 q 763 471 763 366 q 763 321 753 271 q 743 222 714 169 q 686 117 641 78 q 596 38 533 12 q 471 -14 402 -18 q 443 -24 510 -51 q 594 -84 636 -96 q 678 -107 708 -107 q 728 -107 756 -99 l 761 -102 l 761 -119 l 759 -124 q 752 -129 738 -137 q 696 -161 682 -175 q 674 -175 647 -171 q 620 -167 593 -159 q 565 -151 507 -131 q 383 -88 354 -88 q 342 -88 329 -94 q 316 -99 293 -112 l 269 -126 z m 125 369 q 125 309 144 240 q 164 172 202 123 q 240 74 290 50 q 340 26 404 26 q 480 26 539 61 q 598 95 629 168 q 660 241 660 332 q 660 431 625 510 q 589 590 524 626 q 459 662 380 662 q 262 662 193 588 q 125 514 125 369 z"},"w":{"x_min":0,"x_max":834,"ha":834,"o":"m 209 -9 l 144 209 q 125 271 108 324 q 90 376 85 391 q 79 405 73 412 q 66 418 59 420 q 52 423 18 427 l 14 431 l 14 451 l 19 455 q 54 452 127 452 q 207 452 247 455 l 251 451 l 251 431 l 248 427 q 195 426 185 421 q 175 416 175 404 q 175 393 189 344 l 234 187 q 245 150 262 102 q 275 133 299 187 l 371 347 q 396 404 418 462 l 442 462 l 486 344 l 542 203 l 586 95 l 623 191 q 654 274 672 329 q 689 384 689 400 q 689 416 679 420 q 668 425 621 427 l 617 431 l 617 451 l 621 455 q 678 452 716 452 q 765 452 808 455 l 812 451 l 812 431 l 808 427 q 782 426 772 421 q 763 416 751 397 q 739 378 714 321 l 666 206 l 644 151 l 609 61 q 593 18 586 -9 l 540 -9 l 517 52 l 405 332 l 358 230 l 304 109 l 256 -9 z"},"-":{"x_min":0,"x_max":333,"ha":333,"o":"m 22 210 l 22 217 l 44 282 l 305 282 l 305 275 l 282 210 z"},"E":{"x_min":0,"x_max":611,"ha":611,"o":"m 36 687 l 40 690 q 207 687 254 687 q 414 687 539 690 l 542 687 q 529 640 523 540 l 521 536 l 497 536 l 492 540 q 493 544 493 547 q 493 589 486 626 q 456 640 401 644 q 347 648 319 648 q 281 648 221 643 l 219 565 l 217 476 l 216 376 q 269 374 313 374 q 358 374 388 376 q 418 379 424 383 q 429 386 431 395 q 434 404 436 427 l 438 457 l 442 461 l 464 461 l 468 457 q 467 404 466 350 l 468 240 l 464 236 l 442 236 l 438 240 l 435 270 q 430 304 428 310 q 426 317 419 322 q 412 327 383 330 q 354 333 302 333 q 274 333 216 330 q 213 289 213 193 q 213 91 216 42 l 306 42 q 424 42 454 45 q 484 48 511 60 q 515 71 525 112 q 535 152 537 163 l 542 166 l 565 166 l 569 163 q 564 142 560 89 q 556 37 556 0 l 553 -4 q 459 -1 309 -1 l 176 0 q 129 0 79 -4 l 75 0 l 75 16 l 79 21 q 108 36 112 39 q 116 43 119 125 q 122 207 122 250 l 122 429 l 121 540 q 121 576 120 598 q 119 621 117 631 q 114 641 111 645 q 108 648 101 651 q 94 654 77 656 l 40 659 l 36 662 z m 314 726 z m 312 -29 z"},"s":{"x_min":0,"x_max":424,"ha":424,"o":"m 49 144 l 70 144 l 75 139 q 76 98 80 69 q 95 46 132 31 q 169 17 205 17 q 257 17 288 45 q 319 73 319 111 q 319 132 308 148 q 296 163 274 173 q 251 183 192 197 q 142 208 122 215 q 102 222 83 237 q 65 253 55 276 q 45 298 45 326 q 45 391 97 430 q 149 470 227 470 q 260 470 298 461 q 337 452 357 443 l 361 437 q 357 417 356 334 l 352 330 l 333 330 l 328 334 q 326 364 323 376 q 319 388 305 402 q 291 416 265 425 q 239 435 210 435 q 181 435 160 426 q 140 417 128 399 q 115 381 115 356 q 115 337 123 323 q 130 308 146 299 q 162 290 179 286 l 232 272 q 300 256 330 244 q 359 231 375 207 q 392 182 392 147 q 392 80 336 31 q 280 -17 193 -17 q 162 -17 116 -10 q 71 -3 39 5 l 36 11 l 41 44 q 43 59 44 74 q 44 90 45 139 z"},">":{"x_min":0,"x_max":500,"ha":500,"o":"m 485 284 l 15 57 l 15 118 l 413 309 l 15 499 l 15 561 l 485 333 z"},"l":{"x_min":0,"x_max":291,"ha":291,"o":"m 183 723 l 192 717 q 187 661 187 492 l 187 186 q 187 175 188 117 q 190 59 193 49 q 195 39 199 35 q 204 30 210 29 q 216 28 263 25 l 267 21 l 267 0 l 263 -4 q 202 0 146 0 q 89 0 28 -4 l 24 0 l 24 21 l 28 25 q 76 28 82 29 q 88 31 93 35 q 97 40 99 50 q 101 59 103 113 q 105 166 105 193 l 105 446 l 103 550 q 102 604 100 625 q 98 646 95 650 q 92 654 85 656 q 78 658 26 658 l 21 662 l 21 683 l 25 687 q 119 698 183 723 z"},"8":{"x_min":0,"x_max":500,"ha":500,"o":"m 164 346 q 110 375 82 412 q 54 450 54 503 q 54 578 109 631 q 164 685 259 685 q 308 685 349 668 q 390 651 413 617 q 435 584 435 543 q 435 500 409 461 q 382 421 315 381 l 315 376 q 373 349 400 330 q 428 311 445 279 q 463 246 463 204 q 463 146 429 92 q 396 39 341 11 q 287 -17 228 -17 q 143 -17 87 31 q 31 79 31 158 q 31 223 70 269 q 108 316 164 342 z m 278 393 q 330 426 349 459 q 367 492 367 530 q 367 586 335 619 q 303 651 249 651 q 197 651 163 622 q 128 593 128 541 q 128 501 151 472 q 173 443 278 393 z m 204 329 q 146 294 124 255 q 101 216 101 166 q 101 96 140 56 q 179 17 241 17 q 283 17 317 36 q 351 56 368 90 q 385 124 385 164 q 385 221 344 253 q 304 286 204 329 z"},"\\":{"x_min":0,"x_max":606,"ha":606,"o":"m 452 -115 l 449 -120 l 401 -120 l 396 -116 l 132 722 l 135 727 l 184 727 l 188 723 z"},"e":{"x_min":0,"x_max":479,"ha":479,"o":"m 432 72 l 416 37 q 365 4 325 -6 q 286 -16 254 -16 q 196 -16 143 7 q 91 30 58 85 q 25 140 25 217 q 25 268 38 309 q 50 351 64 371 q 78 391 111 415 q 145 439 182 454 q 219 469 262 469 q 320 469 365 441 q 410 414 428 371 q 446 328 446 279 q 446 264 444 250 l 439 245 q 406 237 350 235 q 293 232 275 232 l 119 232 q 120 131 169 83 q 219 36 292 36 q 326 36 357 47 q 389 59 424 80 z m 119 271 q 127 270 186 268 q 245 266 273 266 q 341 266 356 269 q 356 280 356 287 q 356 362 326 399 q 295 436 242 436 q 184 436 151 395 q 119 353 119 271 z m 255 496 z m 249 -29 z"},"b":{"x_min":0,"x_max":553,"ha":553,"o":"m -6 658 l -11 662 l -11 683 l -7 687 q 86 698 150 723 l 160 717 q 154 661 154 492 l 154 368 q 164 380 189 405 q 214 430 230 440 q 246 451 274 458 q 301 466 332 466 q 387 466 428 439 q 470 412 490 366 q 511 320 511 269 q 511 219 494 175 q 477 130 454 102 q 440 85 406 60 q 338 10 310 -2 q 283 -15 239 -15 q 205 -15 177 -5 q 149 4 119 25 l 80 -12 l 63 -6 q 73 83 73 196 l 73 455 l 71 549 q 69 603 68 624 q 66 646 63 650 q 60 654 53 656 q 46 658 -6 658 z m 154 309 l 154 126 q 154 103 156 96 q 159 89 176 74 q 193 60 221 50 q 248 39 277 39 q 347 39 386 93 q 425 146 425 229 q 425 281 409 321 q 393 360 360 381 q 327 402 286 402 q 238 402 201 374 q 164 345 154 309 z"},"%":{"x_min":0,"x_max":840,"ha":840,"o":"m 636 716 l 251 -32 l 245 -35 l 210 -35 l 207 -30 l 592 718 l 597 721 l 633 721 z m 44 534 q 44 601 92 650 q 140 700 214 700 q 260 700 297 681 q 334 662 354 623 q 374 585 374 542 q 374 500 353 458 q 332 416 291 393 q 250 370 204 370 q 137 370 91 416 q 44 463 44 534 z m 122 530 q 122 458 145 427 q 169 395 208 395 q 250 395 274 435 q 297 475 297 543 q 297 605 277 641 q 256 676 213 676 q 170 676 146 637 q 122 599 122 530 z m 466 150 q 466 217 514 267 q 562 316 636 316 q 682 316 719 297 q 756 278 775 240 q 795 202 795 158 q 795 117 775 76 q 754 34 714 10 q 673 -14 626 -14 q 558 -14 512 33 q 466 80 466 150 z m 543 146 q 543 105 552 75 q 561 45 582 29 q 602 12 629 12 q 672 12 696 51 q 719 90 719 160 q 719 220 699 257 q 680 293 635 293 q 594 293 569 256 q 543 219 543 146 z"},"m":{"x_min":0,"x_max":883,"ha":883,"o":"m 180 465 l 189 459 q 186 427 185 382 l 231 424 q 251 442 257 448 q 264 453 287 459 q 311 466 336 466 q 385 466 422 442 q 458 418 476 375 q 542 438 553 445 q 564 452 588 459 q 612 466 636 466 q 674 466 707 449 q 739 433 758 406 q 777 379 780 348 q 783 316 783 262 l 783 210 q 783 202 786 89 q 787 42 796 34 q 806 25 856 25 l 860 21 l 860 0 l 856 -4 q 794 0 772 0 q 760 0 702 -4 l 695 1 q 702 65 702 167 l 702 226 q 702 303 694 334 q 687 365 660 385 q 633 405 596 405 q 570 405 547 394 q 524 384 506 363 q 487 342 485 324 q 483 307 483 259 l 483 198 q 483 176 485 117 q 487 58 490 48 q 492 39 496 34 q 501 30 507 29 q 513 28 560 25 l 564 21 l 564 0 l 560 -4 q 499 0 442 0 q 390 0 325 -4 l 321 0 l 321 21 l 325 25 q 373 28 379 29 q 385 31 389 35 q 394 40 396 50 q 397 59 400 113 q 402 166 402 193 l 402 249 q 402 304 394 334 q 387 364 362 384 q 337 405 299 405 q 270 405 246 393 q 222 382 206 365 q 191 348 187 333 q 184 319 184 270 l 184 198 q 184 176 186 117 q 188 58 190 48 q 192 39 197 34 q 201 30 207 29 q 213 28 260 25 l 264 21 l 264 0 l 260 -4 q 199 0 143 0 q 86 0 25 -4 l 21 0 l 21 21 l 25 25 q 73 28 79 29 q 85 31 90 35 q 94 40 96 50 q 98 59 100 113 q 102 166 102 193 l 102 290 q 102 309 100 343 q 98 376 97 384 q 96 392 89 396 q 83 399 64 399 l 23 400 l 19 404 l 19 425 l 22 429 q 116 440 180 465 z"},"#":{"x_min":0,"x_max":479,"ha":479,"o":"m 84 0 l 118 186 l 45 186 l 57 251 l 129 251 l 167 458 l 94 458 l 106 523 l 178 523 l 208 686 l 244 686 l 214 523 l 325 523 l 354 686 l 391 686 l 362 523 l 434 523 l 422 458 l 350 458 l 313 251 l 385 251 l 373 186 l 301 186 l 268 0 l 231 0 l 265 186 l 154 186 l 120 0 z m 166 251 l 276 251 l 313 458 l 203 458 z"},",":{"x_min":0,"x_max":250,"ha":250,"o":"m -7 -141 q 23 -90 37 -65 q 50 -40 60 -11 q 70 17 73 32 q 76 47 82 94 q 84 95 109 101 q 144 109 182 124 l 194 110 q 132 -34 47 -134 l 5 -153 z"},"n":{"x_min":0,"x_max":582,"ha":582,"o":"m 167 465 l 176 459 q 173 426 172 373 q 211 405 247 438 q 257 448 266 452 q 275 457 296 461 q 317 466 339 466 q 376 466 411 451 q 446 436 464 415 q 481 395 488 366 q 495 338 495 296 l 495 210 q 495 202 498 89 q 499 42 508 34 q 517 25 568 25 l 572 21 l 572 0 l 568 -4 q 506 0 484 0 q 472 0 413 -4 l 407 1 q 414 65 414 167 l 414 231 q 414 289 411 314 q 408 339 395 360 q 381 381 358 392 q 335 404 303 404 q 278 404 260 399 q 242 394 219 378 q 197 362 186 348 q 175 334 173 322 q 171 310 171 271 l 171 186 q 171 175 173 117 q 175 59 177 49 q 179 39 184 35 q 188 30 194 29 q 201 28 247 25 l 251 21 l 251 0 l 248 -4 q 187 0 130 0 q 74 0 13 -4 l 8 0 l 8 21 l 13 25 q 60 28 66 29 q 72 31 77 35 q 82 40 83 50 q 85 59 87 113 q 89 166 89 193 l 89 290 q 89 309 87 343 q 85 376 84 384 q 83 392 77 396 q 70 399 51 399 l 10 400 l 6 404 l 6 425 l 10 429 q 103 440 167 465 z"},"h":{"x_min":0,"x_max":582,"ha":582,"o":"m 166 723 l 175 717 q 170 661 170 492 l 170 372 q 211 405 246 438 q 256 448 266 452 q 275 457 296 461 q 316 466 338 466 q 375 466 410 451 q 445 436 463 415 q 481 395 488 366 q 495 338 495 296 l 495 210 q 495 202 497 89 q 499 42 508 34 q 517 25 568 25 l 572 21 l 572 0 l 568 -4 q 506 0 484 0 q 473 0 413 -4 l 407 1 q 413 65 413 167 l 413 231 q 413 289 410 314 q 408 339 394 360 q 380 381 358 392 q 335 404 303 404 q 270 404 247 395 q 225 386 202 364 q 179 343 175 328 q 170 314 170 273 l 170 186 q 170 175 172 117 q 174 59 176 49 q 178 39 183 35 q 187 30 193 29 q 200 28 246 25 l 250 21 l 250 0 l 247 -4 q 186 0 129 0 q 73 0 12 -4 l 7 0 l 7 21 l 12 25 q 59 28 65 29 q 71 31 76 35 q 81 40 82 50 q 84 59 86 113 q 88 166 88 193 l 88 446 l 86 550 q 85 604 83 625 q 82 646 79 650 q 76 654 68 656 q 61 658 9 658 l 5 662 l 5 683 l 9 687 q 102 698 166 723 z"},"z":{"x_min":0,"x_max":500,"ha":500,"o":"m 26 -4 l 22 0 l 18 19 q 81 85 138 158 l 246 292 q 297 353 341 418 l 226 418 q 212 418 163 416 q 113 414 108 408 q 103 403 93 345 l 90 329 l 86 325 l 67 325 l 62 330 q 67 407 67 419 q 67 431 66 452 l 70 456 q 252 452 360 452 q 417 452 451 456 l 455 452 l 455 428 q 421 391 350 300 l 222 138 q 165 66 142 34 l 176 34 l 274 35 q 328 36 364 40 q 401 43 407 46 q 413 49 415 51 q 416 53 423 82 q 430 110 434 134 l 438 138 l 460 138 l 465 134 q 453 47 452 0 l 448 -4 q 301 0 226 0 q 159 0 26 -4 z"},"B":{"x_min":0,"x_max":611,"ha":611,"o":"m 18 659 l 14 662 l 14 687 l 18 690 q 101 686 146 686 q 164 686 282 690 q 320 691 337 691 q 403 691 441 678 q 480 665 503 631 q 527 598 527 555 q 527 501 488 455 q 449 408 361 388 q 414 383 448 374 q 482 365 507 345 q 532 326 546 295 q 561 265 561 224 q 561 192 551 160 q 541 127 515 95 q 489 62 452 40 q 415 17 376 6 q 337 -4 279 -4 q 268 -4 209 -1 q 144 0 139 0 q 105 0 57 -4 l 53 0 l 53 16 l 57 21 q 85 34 90 39 q 94 43 97 125 q 100 207 100 250 l 100 429 l 99 540 q 99 576 98 598 q 97 621 95 631 q 94 641 90 645 q 86 648 79 651 q 72 654 55 656 z m 193 402 q 217 400 248 400 q 349 400 389 437 q 428 473 428 536 q 428 572 413 598 q 398 624 365 637 q 333 651 277 651 q 232 651 197 644 q 193 600 193 490 z m 194 46 q 231 38 271 38 q 341 38 380 60 q 420 83 439 122 q 458 162 458 209 q 458 279 418 322 q 378 364 246 364 q 224 364 193 362 l 193 195 z"},"K":{"x_min":0,"x_max":726,"ha":726,"o":"m 215 354 q 338 464 392 519 q 447 573 482 609 q 518 644 524 654 l 524 686 l 529 690 q 566 688 610 688 q 620 688 688 689 l 692 685 l 692 662 l 688 658 q 643 658 626 653 q 610 648 578 622 q 546 596 504 558 l 307 377 l 601 105 q 671 39 680 33 q 688 27 715 26 l 719 22 l 719 2 l 715 -2 q 687 0 657 0 q 639 0 578 -2 q 533 40 500 72 q 466 104 215 334 l 215 230 l 216 135 q 216 80 219 63 q 221 47 226 42 q 230 37 244 33 q 257 29 309 27 l 312 24 l 312 0 l 309 -4 q 306 -4 223 -1 q 188 0 168 0 q 153 0 29 -4 l 25 0 l 25 24 l 29 27 q 74 29 89 32 q 104 35 110 40 q 115 44 118 60 q 121 75 122 127 l 122 230 l 122 456 l 121 551 q 121 607 118 623 q 116 639 112 645 q 107 650 94 653 q 81 657 29 659 l 25 662 l 25 687 l 29 690 l 90 688 q 150 686 168 686 q 185 686 309 690 l 312 687 l 312 662 l 309 659 q 275 658 257 656 q 238 654 230 648 q 222 643 219 623 q 216 604 216 568 l 215 456 z"},"R":{"x_min":0,"x_max":668,"ha":668,"o":"m 21 687 l 24 690 q 114 686 164 686 q 219 686 312 689 q 347 690 363 690 q 486 690 530 646 q 574 601 574 539 q 574 498 553 458 q 531 419 489 391 q 447 363 374 349 q 387 330 423 283 l 492 191 q 526 146 564 95 q 603 44 614 38 q 625 31 634 30 q 642 28 659 28 l 663 24 l 663 1 l 659 -3 q 635 0 603 0 q 568 0 527 -3 q 494 38 421 139 q 337 256 250 356 l 254 372 q 280 370 294 370 q 378 370 426 411 q 474 451 474 523 q 474 587 431 620 q 388 653 315 653 q 264 653 218 639 q 211 628 211 456 l 211 230 l 211 135 q 212 80 214 63 q 217 47 221 42 q 226 37 239 33 q 252 29 304 27 l 308 24 l 308 0 l 304 -4 q 302 -4 218 -1 q 184 0 164 0 q 149 0 24 -4 l 21 0 l 21 24 l 24 27 q 70 29 85 32 q 100 35 105 40 q 110 44 114 60 q 117 75 117 127 l 118 230 l 118 456 l 117 551 q 116 607 114 623 q 112 639 107 645 q 103 650 89 653 q 76 657 24 659 l 21 662 z"},"T":{"x_min":0,"x_max":613,"ha":613,"o":"m 589 690 l 594 686 q 589 642 589 532 l 585 528 l 562 528 l 559 533 l 553 578 q 549 614 547 622 q 545 630 540 634 q 535 637 508 640 q 481 642 448 642 l 356 642 q 352 532 352 515 l 352 230 l 353 135 q 354 80 356 63 q 358 47 363 42 q 367 37 380 33 q 394 29 446 27 l 449 24 l 449 0 l 446 -4 q 321 0 306 0 q 291 0 167 -4 l 163 0 l 163 24 l 167 27 q 213 29 228 32 q 243 35 248 40 q 253 44 256 60 q 260 75 260 127 l 261 230 l 261 515 q 261 522 257 642 l 184 642 q 139 642 106 640 q 74 638 69 630 q 63 622 59 578 l 54 533 l 50 528 l 27 528 l 23 532 q 22 650 19 686 l 23 690 q 108 686 306 686 q 508 686 589 690 z"},"P":{"x_min":0,"x_max":604,"ha":604,"o":"m 29 690 q 152 686 186 686 q 231 686 289 688 q 349 690 363 690 q 432 690 476 676 q 521 662 550 625 q 580 587 580 534 q 580 490 559 449 q 539 408 502 379 q 465 350 428 338 q 390 325 350 325 q 319 325 282 332 l 274 362 l 278 367 q 315 358 338 358 q 402 358 441 401 q 479 443 479 509 q 479 575 439 615 q 399 654 317 654 q 273 654 220 638 q 215 600 215 456 l 215 230 l 216 135 q 216 80 219 63 q 221 47 226 42 q 230 37 244 33 q 257 29 309 27 l 312 24 l 312 0 l 309 -4 q 184 0 168 0 q 152 0 29 -4 l 25 0 l 25 24 l 29 27 q 74 29 89 32 q 104 35 110 40 q 115 44 118 60 q 121 75 122 127 l 122 230 l 122 456 l 121 551 q 121 607 118 623 q 116 639 112 645 q 107 650 94 653 q 81 657 29 659 l 25 662 l 25 687 z"},"|":{"x_min":0,"x_max":500,"ha":500,"o":"m 222 0 l 222 731 l 278 731 l 278 0 z"},"t":{"x_min":0,"x_max":326,"ha":326,"o":"m 22 383 l 22 396 l 26 401 q 72 418 100 433 q 100 560 97 581 q 147 599 180 619 l 191 609 q 187 578 180 430 q 204 430 232 430 q 290 430 315 433 l 318 429 l 309 388 l 305 384 q 280 384 250 384 q 223 384 180 384 l 177 185 q 177 116 180 95 q 183 74 198 62 q 212 50 240 50 q 273 50 301 67 l 312 49 q 301 41 256 0 q 231 -11 205 -11 q 95 -11 95 95 q 95 134 97 162 q 97 170 97 179 l 97 381 l 77 381 q 55 381 27 379 z"},"M":{"x_min":0,"x_max":946,"ha":946,"o":"m 918 688 l 923 685 l 923 661 l 919 657 q 865 656 852 652 q 839 648 834 639 q 829 630 828 604 q 827 577 825 455 l 825 229 q 825 181 827 119 q 828 58 833 48 q 837 38 850 33 q 862 28 919 27 l 923 23 l 923 0 l 918 -4 q 839 0 780 0 q 740 0 644 -4 l 639 0 l 639 23 l 643 27 q 697 28 710 32 q 723 36 728 45 q 733 54 734 81 q 735 108 737 229 l 737 588 l 568 235 q 505 103 458 -14 l 438 -14 q 411 49 394 87 l 160 572 l 160 230 q 160 183 161 120 q 163 58 167 48 q 172 39 185 34 q 197 29 254 28 l 258 24 l 258 0 l 253 -4 l 222 -2 q 174 0 139 0 q 124 0 22 -4 l 19 0 l 19 23 l 22 28 q 76 29 89 33 q 102 37 107 46 q 113 55 114 81 q 114 106 116 230 l 116 454 q 116 499 115 562 q 113 626 109 636 q 104 646 92 651 q 80 656 22 657 l 19 661 l 19 684 l 23 688 q 57 686 114 686 q 167 686 208 688 q 249 594 286 517 l 471 137 l 638 485 q 706 626 729 688 q 776 686 822 686 q 863 686 918 688 z"},"g":{"x_min":0,"x_max":556,"ha":556,"o":"m 539 432 l 542 423 q 522 392 518 383 l 427 383 q 440 356 440 327 q 440 292 425 259 q 409 227 380 204 q 352 181 316 167 q 280 153 234 153 l 212 153 q 183 130 175 119 q 167 108 167 96 q 167 75 186 66 q 206 57 268 57 l 377 59 q 429 59 457 46 q 484 34 501 3 q 519 -29 519 -64 q 519 -118 484 -171 q 449 -225 383 -252 q 317 -280 242 -280 q 200 -280 162 -271 q 125 -262 97 -243 q 69 -224 52 -194 q 35 -164 35 -131 q 35 -113 40 -93 q 45 -73 61 -50 l 149 -1 q 106 12 95 25 q 84 38 84 56 q 84 75 97 100 l 175 157 q 106 175 82 211 q 58 247 58 290 q 58 330 75 365 q 92 401 126 423 q 161 444 203 457 q 246 469 281 469 q 342 469 397 430 q 486 430 539 432 z m 142 318 q 142 289 153 254 q 165 220 191 203 q 217 185 250 185 q 293 185 325 213 q 356 242 356 302 q 356 353 328 393 q 299 434 246 434 q 202 434 172 405 q 142 375 142 318 z m 285 -9 q 206 -9 194 -11 q 182 -13 160 -28 q 138 -42 124 -68 q 110 -93 110 -124 q 110 -179 151 -214 q 192 -249 261 -249 q 312 -249 355 -227 q 399 -206 420 -169 q 440 -133 440 -100 q 440 -67 423 -43 q 406 -20 378 -14 q 351 -9 285 -9 z"},"j":{"x_min":0,"x_max":234,"ha":234,"o":"m 118 684 q 141 684 157 668 q 173 652 173 628 q 173 606 157 590 q 141 574 118 574 q 95 574 79 590 q 63 606 63 628 q 63 651 79 667 q 95 684 118 684 z m -4 425 l 0 429 q 93 440 157 465 l 166 459 q 161 395 161 280 l 161 190 l 162 34 q 162 -46 149 -115 q 136 -183 90 -232 q 44 -280 -16 -280 q -20 -280 -26 -280 l -31 -252 l -27 -246 q -16 -247 -10 -247 q 6 -247 22 -238 q 38 -229 50 -209 q 63 -190 69 -162 q 75 -134 77 -74 q 79 -15 79 5 l 79 290 q 79 309 77 343 q 76 376 74 384 q 73 393 66 396 q 60 399 42 399 l 0 400 l -4 404 z"},"i":{"x_min":0,"x_max":291,"ha":291,"o":"m 141 684 q 164 684 180 667 q 196 651 196 628 q 196 606 180 590 q 164 574 141 574 q 118 574 102 590 q 85 605 85 628 q 85 651 102 667 q 118 684 141 684 z m 182 465 l 191 459 q 186 395 186 296 l 186 186 q 186 175 188 117 q 190 59 192 49 q 194 39 199 35 q 203 30 209 29 q 216 28 262 25 l 267 21 l 267 0 l 263 -4 q 202 0 145 0 q 89 0 28 -4 l 23 0 l 23 21 l 28 25 q 75 28 81 29 q 87 31 92 35 q 97 40 98 50 q 100 59 102 113 q 104 166 104 193 l 104 290 q 104 309 103 343 q 101 376 99 384 q 98 392 92 396 q 85 399 66 399 l 25 400 l 21 404 l 21 425 l 25 429 q 118 440 182 465 z m 144 -29 z"},"y":{"x_min":0,"x_max":556,"ha":556,"o":"m 22 -265 q 39 -224 47 -190 l 59 -190 q 83 -216 110 -216 q 145 -216 171 -181 q 196 -147 243 -29 q 225 23 206 69 l 128 262 q 116 292 92 347 q 68 402 63 408 q 59 414 51 418 q 44 423 12 428 l 8 432 l 8 451 l 12 455 q 68 452 127 452 q 197 452 234 455 l 238 451 l 238 432 l 235 428 q 229 427 205 426 q 180 424 174 418 q 168 412 168 404 q 168 396 183 350 q 198 304 212 269 l 243 193 q 273 118 290 82 l 316 139 q 330 170 355 234 l 396 337 q 411 377 413 387 q 416 397 416 401 q 416 412 408 416 q 400 420 373 423 l 353 426 l 349 430 l 349 451 l 353 455 q 394 452 450 452 q 501 452 532 455 l 536 451 l 536 430 l 532 426 q 514 425 503 421 q 493 417 483 405 q 473 394 448 342 q 422 290 397 234 l 349 129 l 236 -134 q 222 -168 200 -208 q 178 -247 147 -264 q 115 -281 80 -281 q 49 -281 22 -265 z m 283 496 z m 398 -29 z"},"@":{"x_min":0,"x_max":683,"ha":683,"o":"m 559 89 l 562 85 q 557 74 555 62 q 455 -21 318 -21 q 189 -21 106 61 q 23 143 23 269 q 23 413 127 511 q 231 609 381 609 q 502 609 581 544 q 660 479 660 370 q 660 277 602 201 q 543 125 473 125 q 440 125 421 142 q 401 160 401 188 q 401 193 402 204 l 396 205 q 375 168 348 149 q 321 130 283 130 q 233 130 208 163 q 183 196 183 255 q 183 340 235 413 q 287 486 368 486 q 424 486 444 442 l 451 476 l 502 487 l 508 482 q 495 435 473 332 q 451 229 451 201 q 451 177 462 165 q 473 153 492 153 q 522 153 552 180 q 581 207 600 257 q 619 307 619 369 q 619 480 551 533 q 482 586 384 586 q 312 586 240 550 q 168 513 124 438 q 80 363 80 269 q 80 194 109 134 q 139 74 196 40 q 253 6 333 6 q 399 6 459 30 q 519 54 559 89 z m 250 256 q 250 204 264 182 q 278 160 305 160 q 322 160 335 167 q 349 174 362 191 q 376 207 391 239 q 405 271 417 321 q 428 370 428 398 q 428 427 414 445 q 400 463 374 463 q 344 463 318 438 q 291 412 270 359 q 250 306 250 256 z"},".":{"x_min":0,"x_max":250,"ha":250,"o":"m 125 108 q 148 108 166 91 q 183 75 183 49 q 183 25 166 8 q 149 -9 125 -9 q 101 -9 83 8 q 66 25 66 49 q 66 74 83 91 q 101 108 125 108 z"},"p":{"x_min":0,"x_max":601,"ha":601,"o":"m 181 471 l 190 465 q 185 410 185 367 q 251 427 277 447 q 303 466 367 466 q 407 466 440 455 q 473 444 500 419 q 528 394 544 356 q 561 318 561 269 q 561 233 549 197 q 538 161 520 130 q 501 100 490 90 q 479 80 445 60 q 415 41 384 20 q 363 4 355 0 q 347 -4 327 -9 q 308 -13 286 -13 q 235 -13 185 13 l 185 -91 q 185 -102 187 -160 q 188 -219 191 -229 q 193 -238 197 -243 q 202 -247 208 -248 q 214 -250 261 -252 l 265 -256 l 265 -277 l 261 -281 q 200 -277 144 -277 q 88 -277 27 -281 l 22 -277 l 22 -256 l 27 -252 q 74 -250 80 -248 q 86 -247 91 -242 q 96 -237 97 -227 q 99 -217 101 -162 q 104 -106 104 -79 l 104 295 q 104 321 101 354 q 99 388 98 393 q 96 398 91 402 q 85 405 65 405 l 24 406 l 20 410 l 20 431 l 24 435 q 117 446 181 471 z m 185 97 q 207 74 240 57 q 273 40 313 40 q 361 40 397 64 q 434 88 454 134 q 474 180 474 236 q 474 282 456 321 q 438 360 401 382 q 363 405 321 405 q 295 405 271 396 q 247 387 225 369 q 204 352 195 336 q 186 320 185 309 q 185 299 185 286 z"},"X":{"x_min":0,"x_max":667,"ha":667,"o":"m 15 2 l 15 26 l 19 30 q 52 30 63 36 q 74 42 92 64 q 109 86 161 157 l 294 342 l 208 489 q 198 506 165 553 q 132 601 113 620 q 94 638 85 641 q 76 644 34 644 l 29 648 l 29 669 l 34 673 l 172 696 q 190 685 211 657 q 231 630 271 562 l 353 419 l 540 692 q 581 690 590 690 q 594 690 635 692 l 639 688 l 639 666 l 635 662 q 604 660 594 656 q 584 652 569 635 q 553 619 504 553 l 413 430 l 376 381 l 542 113 q 565 75 580 56 q 594 38 603 34 q 612 30 643 30 l 647 26 l 647 2 l 643 -2 q 597 0 578 0 q 553 0 502 -2 q 473 42 448 84 l 320 304 l 284 254 q 214 158 119 -2 q 87 0 69 0 q 50 0 20 -2 z"},"*":{"x_min":0,"x_max":389,"ha":389,"o":"m 55 406 q 38 451 28 466 l 33 479 q 43 482 84 499 q 126 516 160 531 l 33 592 q 32 592 29 593 l 27 604 q 37 621 62 665 l 73 665 l 174 559 l 203 698 l 211 704 q 243 693 274 686 l 277 676 q 266 657 244 621 q 223 585 204 547 q 244 553 272 558 q 334 570 341 570 l 350 563 q 352 539 362 500 l 353 492 q 288 508 204 518 q 227 474 238 455 q 264 410 269 398 l 267 386 q 254 380 230 365 q 215 356 208 352 l 195 356 l 174 504 l 68 404 z"},"Y":{"x_min":0,"x_max":667,"ha":667,"o":"m 7 644 l 3 648 l 3 669 l 7 673 l 146 696 q 160 686 174 670 q 188 655 215 612 q 241 569 283 493 q 325 417 364 340 l 414 419 l 470 513 l 573 690 q 592 688 610 688 q 622 688 645 690 l 648 686 l 648 677 q 624 650 573 579 q 521 509 496 469 q 471 429 435 369 q 398 309 395 296 q 391 284 391 268 l 391 196 l 392 123 q 392 80 395 63 q 397 46 402 41 q 407 36 420 33 q 433 29 484 27 l 488 24 l 488 0 l 484 -4 q 482 -4 398 -1 q 364 0 344 0 q 329 0 205 -4 l 201 0 l 201 24 l 205 27 q 251 29 266 32 q 280 35 285 40 q 291 44 293 58 q 296 71 297 113 l 298 196 l 298 289 q 287 315 226 416 l 183 485 q 163 519 132 563 q 101 607 83 623 q 66 639 57 641 q 48 644 7 644 z m 357 726 z m 342 -29 z"},"c":{"x_min":0,"x_max":444,"ha":444,"o":"m 424 52 l 404 20 q 341 -15 264 -15 q 156 -15 98 49 q 39 113 39 214 q 39 260 49 296 q 59 332 74 355 q 90 378 108 392 q 127 406 171 430 q 215 455 238 462 q 260 470 300 470 q 375 470 424 441 q 415 386 410 318 l 405 314 l 385 314 l 381 318 q 379 359 375 374 q 372 388 337 404 q 301 420 261 420 q 221 420 190 403 q 159 386 143 348 q 127 310 127 256 q 127 211 140 169 q 152 126 173 98 q 194 70 228 53 q 262 36 304 36 q 331 36 356 42 q 381 49 414 65 z"},"!":{"x_min":0,"x_max":278,"ha":278,"o":"m 185 697 l 185 646 q 185 643 174 531 q 158 367 147 214 l 120 189 l 111 194 q 107 292 88 484 l 78 594 q 76 625 76 658 q 116 677 152 697 z m 127 108 q 151 108 168 91 q 186 75 186 49 q 186 25 168 8 q 151 -9 127 -9 q 103 -9 86 8 q 69 25 69 49 q 69 74 86 91 q 103 108 127 108 z"},"/":{"x_min":0,"x_max":320,"ha":320,"o":"m 0 -115 l 264 723 l 269 727 l 317 727 l 320 722 l 57 -116 l 51 -120 l 3 -120 z"},"[":{"x_min":0,"x_max":333,"ha":333,"o":"m 287 -179 l 287 -204 l 282 -209 q 282 -209 262 -208 q 210 -207 191 -207 q 150 -207 92 -209 l 82 -200 q 88 -109 88 38 q 88 470 87 544 q 86 619 82 679 l 91 690 q 147 688 184 688 q 217 688 282 690 l 287 687 l 287 659 l 284 655 q 274 654 256 653 q 201 650 192 647 q 184 644 179 636 q 174 628 172 588 q 169 548 168 438 q 167 328 167 257 l 167 54 l 169 -61 q 170 -134 177 -153 q 179 -159 184 -164 q 189 -168 203 -171 q 209 -172 282 -174 z"},"6":{"x_min":0,"x_max":500,"ha":500,"o":"m 422 675 l 422 669 q 369 658 301 616 q 232 574 186 503 q 140 433 132 333 q 149 344 170 361 q 198 382 211 390 q 224 397 246 403 q 268 409 296 409 q 346 409 386 387 q 426 365 446 322 q 466 278 466 221 q 466 139 427 84 q 387 29 343 6 q 298 -18 241 -18 q 143 -18 88 55 q 34 129 34 247 q 34 325 57 397 q 80 469 126 527 q 172 585 244 631 q 316 676 386 692 z m 123 209 q 123 161 137 114 q 151 66 182 41 q 212 15 254 15 q 290 15 320 35 q 350 55 366 97 q 382 140 382 188 q 382 235 366 272 q 351 310 321 330 q 291 351 251 351 q 222 351 193 337 q 164 323 148 305 q 132 287 127 266 q 123 246 123 209 z"},"r":{"x_min":0,"x_max":395,"ha":395,"o":"m 188 465 l 197 459 q 194 431 192 358 l 229 405 q 247 428 261 440 q 275 453 293 459 q 312 466 332 466 q 353 466 372 458 l 375 451 q 368 386 367 336 l 345 336 q 325 381 282 381 q 251 381 229 362 q 207 343 199 314 q 191 285 191 240 l 191 186 q 191 171 193 114 q 195 57 198 48 q 200 40 204 35 q 209 31 217 30 q 224 28 286 25 l 291 21 l 291 0 l 286 -4 q 221 0 150 0 q 94 0 33 -4 l 29 0 l 29 21 l 33 25 q 81 28 87 29 q 93 31 97 35 q 102 40 104 50 q 105 59 108 113 q 110 166 110 193 l 110 290 q 110 309 108 343 q 106 376 105 384 q 104 392 97 396 q 91 399 72 399 l 31 400 l 26 404 l 26 425 l 30 429 q 124 440 188 465 z"},"2":{"x_min":0,"x_max":500,"ha":500,"o":"m 22 -5 l 17 0 l 17 22 l 180 196 q 281 303 311 361 q 341 420 341 471 q 341 530 305 570 q 269 609 207 609 q 167 609 138 597 q 109 585 99 570 q 89 555 70 485 l 65 481 l 45 481 l 41 485 q 52 551 56 616 q 102 661 142 673 q 182 686 225 686 q 277 686 324 666 q 372 646 400 603 q 429 559 429 501 q 429 458 412 415 q 396 372 363 332 q 331 292 274 235 l 122 80 l 315 80 q 404 80 463 86 l 466 83 q 463 66 463 39 q 463 15 466 0 l 463 -5 q 428 -3 355 -1 q 282 0 259 0 q 211 0 131 -1 q 51 -2 22 -5 z"},"{":{"x_min":0,"x_max":333,"ha":333,"o":"m 289 -174 q 194 -174 164 -141 q 135 -111 135 -17 l 135 152 q 135 195 129 215 q 123 236 106 251 q 86 269 58 269 l 58 281 q 104 281 122 318 q 135 346 135 394 l 135 579 q 135 621 144 650 q 157 698 200 715 q 230 727 289 727 l 289 714 q 247 714 228 687 q 208 659 208 595 l 208 410 q 208 353 193 324 q 175 289 125 274 q 176 259 194 225 q 208 197 208 137 l 208 -44 q 208 -136 250 -156 q 264 -162 289 -162 z"},"9":{"x_min":0,"x_max":500,"ha":500,"o":"m 65 -4 l 65 5 q 201 37 278 125 q 356 213 366 340 q 294 255 205 255 q 149 255 107 282 q 65 309 45 352 q 25 395 25 452 q 25 558 89 622 q 153 686 247 686 q 342 686 401 617 q 460 548 460 419 q 460 362 449 309 q 438 257 409 202 q 379 146 330 99 q 281 52 219 20 q 157 -11 97 -20 z m 110 484 q 110 441 125 401 q 140 360 170 338 q 201 315 243 315 q 300 315 335 354 q 371 393 371 470 q 371 550 336 601 q 301 652 241 652 q 183 652 146 609 q 110 566 110 484 z"}," ":{"x_min":0,"x_max":250,"ha":250,"o":""},"I":{"x_min":0,"x_max":337,"ha":337,"o":"m 29 690 l 90 688 q 150 686 168 686 q 185 686 309 690 l 312 687 l 312 662 l 309 659 q 275 658 257 656 q 238 654 230 648 q 222 643 219 623 q 216 604 216 568 l 215 456 l 215 230 l 216 135 q 216 80 219 63 q 221 47 226 42 q 230 37 244 33 q 257 29 309 27 l 312 24 l 312 0 l 309 -4 q 306 -4 223 -1 q 188 0 168 0 q 153 0 29 -4 l 25 0 l 25 24 l 29 27 q 74 29 89 32 q 104 35 110 40 q 115 44 118 60 q 121 75 122 127 l 122 230 l 122 456 l 121 551 q 121 607 118 623 q 116 639 112 645 q 107 650 94 653 q 81 657 29 659 l 25 662 l 25 687 z m 175 726 z m 168 -29 z"},"H":{"x_min":0,"x_max":832,"ha":832,"o":"m 29 690 q 153 686 168 686 q 185 686 309 690 l 312 687 l 312 662 l 309 659 q 275 658 257 656 q 238 654 230 648 q 222 643 219 623 q 216 604 216 568 l 215 456 l 215 388 q 322 385 418 385 q 549 385 617 388 l 617 456 l 616 551 q 616 607 613 623 q 611 639 606 645 q 602 650 589 653 q 576 657 523 659 l 520 662 l 520 687 l 523 690 q 648 686 664 686 q 680 686 804 690 l 808 687 l 808 662 l 804 659 q 770 658 751 656 q 733 654 725 648 q 716 643 714 623 q 711 604 711 568 l 710 456 l 710 230 l 711 135 q 711 80 714 63 q 716 47 721 42 q 726 37 739 33 q 751 29 804 27 l 808 24 l 808 0 l 804 -4 q 679 0 664 0 q 648 0 523 -4 l 520 0 l 520 24 l 523 27 q 569 29 584 32 q 600 35 604 40 q 609 44 613 60 q 616 75 616 127 l 617 230 l 617 341 q 473 344 415 344 q 355 344 215 341 l 215 230 l 216 135 q 216 80 219 63 q 221 47 226 42 q 230 37 244 33 q 257 29 309 27 l 312 24 l 312 0 l 309 -4 q 184 0 168 0 q 153 0 29 -4 l 25 0 l 25 24 l 29 27 q 74 29 89 32 q 104 35 110 40 q 115 44 118 60 q 121 75 122 127 l 122 230 l 122 456 l 121 551 q 121 607 118 623 q 116 639 112 645 q 107 650 94 653 q 81 657 29 659 l 25 662 l 25 687 z"},"4":{"x_min":0,"x_max":500,"ha":500,"o":"m 161 -4 l 157 0 l 157 21 l 161 25 q 233 27 246 29 q 260 32 266 40 q 272 47 276 78 q 279 108 279 142 l 279 178 l 172 178 q 79 178 14 175 l 6 202 q 91 361 290 663 l 358 690 l 371 685 q 365 602 365 479 l 364 341 l 364 240 q 431 241 468 243 l 472 238 q 471 220 471 211 q 472 195 473 180 l 468 175 q 420 178 389 178 l 364 178 l 364 146 q 364 91 367 68 q 370 45 376 38 q 382 32 402 29 q 421 25 468 25 l 473 21 l 473 0 l 469 -4 q 383 0 325 0 q 230 0 161 -4 z m 70 240 l 279 240 l 283 587 q 236 521 165 404 q 94 287 70 240 z"},"~":{"x_min":0,"x_max":500,"ha":500,"o":"m 473 347 q 422 250 351 250 q 323 250 218 292 q 172 311 154 311 q 133 311 114 299 q 94 286 59 230 l 27 266 q 68 331 95 349 q 123 368 152 368 q 185 368 257 336 q 328 306 349 306 q 402 306 442 381 z"},"D":{"x_min":0,"x_max":774,"ha":774,"o":"m 15 687 l 19 690 q 103 686 134 686 l 362 691 q 460 691 522 673 q 585 654 634 609 q 682 564 707 504 q 732 444 732 376 q 732 311 709 246 q 687 182 644 131 q 602 80 548 48 q 494 17 440 7 q 386 -4 329 -4 q 291 -4 186 -1 q 151 0 140 0 q 106 0 58 -4 l 54 0 l 54 16 l 58 21 q 87 36 91 39 q 95 43 98 125 q 101 207 101 250 l 101 429 l 100 540 q 100 576 99 598 q 98 621 96 631 q 93 641 90 645 q 87 648 80 651 q 73 654 56 656 l 19 659 l 15 662 z m 195 49 q 245 40 310 40 q 424 40 492 78 q 560 116 594 190 q 627 265 627 359 q 627 497 554 573 q 480 649 321 649 q 256 649 195 640 q 191 560 191 459 l 191 306 l 192 162 q 192 120 195 49 z"},"^":{"x_min":0,"x_max":500,"ha":500,"o":"m 473 328 l 411 328 l 250 632 l 89 328 l 27 328 l 220 693 l 280 693 z"},"0":{"x_min":0,"x_max":500,"ha":500,"o":"m 30 298 q 30 385 39 455 q 48 524 78 579 q 108 633 153 660 q 198 688 256 688 q 321 688 371 654 q 420 620 442 550 q 464 480 464 360 q 464 165 404 73 q 344 -20 238 -20 q 185 -20 144 3 q 104 26 77 70 q 51 113 41 172 q 30 231 30 298 z m 114 327 q 114 234 128 158 q 142 82 175 48 q 207 15 252 15 q 295 15 324 44 q 354 74 367 146 q 380 219 380 325 q 380 492 349 572 q 317 652 244 652 q 180 652 147 590 q 114 528 114 327 z"},"F":{"x_min":0,"x_max":556,"ha":556,"o":"m 213 329 l 213 230 l 213 135 q 214 82 216 64 q 219 47 223 42 q 228 37 241 33 q 254 29 306 27 l 310 24 l 310 0 l 306 -4 q 182 0 166 0 q 150 0 26 -4 l 22 0 l 22 24 l 26 27 q 72 29 87 32 q 102 35 107 40 q 112 45 115 60 q 119 74 119 126 l 120 230 l 120 456 l 119 551 q 118 607 116 623 q 114 639 109 645 q 104 650 91 653 q 78 657 26 659 l 22 662 l 22 687 l 26 690 q 233 687 268 687 q 384 687 506 690 l 510 687 q 502 662 500 631 q 498 600 495 543 l 491 540 l 468 540 l 464 543 q 463 547 460 581 q 458 608 452 630 q 401 647 312 647 q 272 647 218 642 q 213 604 213 456 l 213 372 q 275 371 297 371 q 339 371 369 374 q 398 377 404 380 q 410 383 413 391 q 417 399 419 426 l 422 453 l 426 457 l 451 457 l 455 452 l 451 345 q 451 327 453 292 q 455 251 455 229 l 450 226 l 426 226 l 422 229 l 420 271 q 419 295 416 307 q 412 318 404 321 q 396 325 370 328 q 343 331 287 331 q 238 331 213 329 z"},"`":{"x_min":0,"x_max":333,"ha":333,"o":"m 249 545 l 248 539 l 233 532 l 227 534 l 83 716 l 92 729 l 98 730 l 133 723 q 145 721 174 716 z"},"k":{"x_min":0,"x_max":556,"ha":556,"o":"m 178 723 l 187 717 q 182 661 182 492 l 182 263 q 198 273 247 312 q 296 352 350 402 q 405 453 406 457 q 448 456 456 456 q 467 456 501 457 l 506 453 l 506 434 l 502 429 q 478 428 465 423 q 452 418 412 391 q 372 363 318 319 l 271 280 q 296 250 361 185 q 426 121 466 85 q 506 49 518 44 q 530 39 544 39 l 544 18 q 526 15 451 -12 q 400 32 386 46 l 350 83 l 307 127 q 287 147 253 178 l 182 244 l 182 186 q 182 175 184 117 q 186 59 188 49 q 190 39 194 35 q 199 30 205 29 q 211 28 258 25 l 262 21 l 262 0 l 258 -4 q 197 0 141 0 q 84 0 23 -4 l 19 0 l 19 21 l 23 25 q 71 28 77 29 q 83 31 88 35 q 92 40 94 50 q 96 59 98 113 q 100 166 100 193 l 100 446 l 98 550 q 97 604 95 625 q 93 646 90 650 q 87 654 80 656 q 73 658 21 658 l 17 662 l 17 683 l 21 687 q 114 698 178 723 z"},"u":{"x_min":0,"x_max":603,"ha":603,"o":"m 169 465 l 178 459 q 173 395 173 296 l 173 183 q 173 120 182 96 q 192 71 215 58 q 239 45 271 45 q 307 45 336 59 q 365 73 385 99 q 405 124 408 133 q 411 142 412 182 l 413 237 l 413 290 q 413 309 411 343 q 409 376 408 384 q 407 392 400 396 q 394 399 375 399 l 334 400 l 330 404 l 330 425 l 333 429 q 427 440 491 465 l 500 459 q 495 395 495 296 l 495 210 q 495 203 497 91 q 498 49 502 40 q 506 31 514 28 q 521 24 557 24 l 571 24 l 575 20 l 575 0 l 571 -4 q 502 0 479 0 q 449 0 410 -3 l 406 0 q 409 50 410 85 q 379 61 340 21 q 325 6 296 -4 q 268 -15 232 -15 q 177 -15 147 3 q 116 20 104 51 q 91 81 91 156 l 91 194 l 91 290 q 91 309 89 343 q 87 376 86 384 q 85 392 79 396 q 72 399 53 399 l 12 400 l 8 404 l 8 425 l 12 429 q 105 440 169 465 z m 286 496 z m 291 -29 z"},"]":{"x_min":0,"x_max":333,"ha":333,"o":"m 42 -204 l 42 -179 l 46 -174 l 110 -172 q 126 -172 138 -167 q 149 -163 152 -152 q 155 -142 156 -119 q 158 -96 159 -8 q 161 80 161 159 l 160 328 l 159 494 q 158 579 155 605 q 152 632 148 638 q 144 644 136 647 q 128 650 72 653 q 54 654 44 655 l 42 659 l 42 687 l 46 690 q 111 688 145 688 q 181 688 237 690 l 246 679 q 241 626 240 257 q 240 -11 241 -71 q 242 -130 246 -200 l 236 -209 q 177 -207 137 -207 q 118 -207 46 -209 z"},"U":{"x_min":0,"x_max":778,"ha":778,"o":"m 15 687 l 19 690 q 140 686 158 686 q 175 686 298 690 l 302 687 l 302 662 l 298 659 q 265 658 246 656 q 228 654 220 648 q 211 643 209 623 q 206 604 206 568 l 205 456 l 205 301 q 205 224 208 188 q 211 152 222 128 q 232 103 254 85 q 275 67 315 56 q 355 45 406 45 q 460 45 507 60 q 553 75 578 103 q 602 131 610 177 q 617 224 617 306 l 617 456 q 617 494 616 561 q 615 627 610 637 q 605 647 593 653 q 581 658 524 659 l 520 663 l 520 686 l 524 690 q 596 686 640 686 q 677 686 755 690 l 759 686 l 759 663 l 755 659 q 709 658 695 655 q 681 652 676 647 q 670 642 667 630 q 665 619 664 566 l 662 456 l 662 308 q 662 219 655 167 q 648 116 625 83 q 601 50 569 28 q 536 6 485 -6 q 435 -18 380 -18 q 312 -18 259 -3 q 207 12 176 37 q 146 62 133 90 q 120 117 116 155 q 112 192 112 269 l 112 456 l 111 551 q 110 607 108 623 q 106 639 101 645 q 97 650 83 653 q 70 657 19 659 l 15 662 z m 396 726 z m 393 -29 z"},"o":{"x_min":0,"x_max":546,"ha":546,"o":"m 33 224 q 33 282 57 336 q 81 390 140 429 q 200 468 281 468 q 384 468 448 404 q 513 339 513 237 q 513 125 439 53 q 365 -19 260 -19 q 192 -19 138 18 q 84 55 59 108 q 33 161 33 224 z m 125 257 q 125 189 143 135 q 161 81 199 48 q 237 16 286 16 q 343 16 381 61 q 418 107 418 199 q 418 303 378 369 q 337 436 260 436 q 197 436 161 390 q 125 344 125 257 z m 273 496 z m 266 -29 z"},"N":{"x_min":0,"x_max":831,"ha":831,"o":"m 32 -3 l 28 1 l 28 23 l 32 27 q 62 28 80 31 q 98 34 103 41 q 108 47 110 62 q 111 78 113 131 q 115 184 115 207 l 115 602 q 115 626 106 638 q 97 650 81 654 q 65 657 28 657 l 24 661 l 24 684 l 28 688 q 95 686 116 686 q 166 686 197 688 l 353 486 l 582 199 q 624 147 667 100 l 667 478 q 667 496 665 553 q 663 610 661 626 q 658 641 652 646 q 646 652 629 655 q 612 657 583 658 l 580 662 l 580 684 l 583 688 q 623 686 696 686 q 763 686 793 688 l 798 684 l 798 662 l 794 658 q 762 657 744 654 q 727 651 722 644 q 718 636 716 622 q 714 608 713 555 q 711 501 711 478 l 711 246 l 711 112 q 712 46 713 -21 q 689 -12 629 0 l 594 41 l 490 168 l 159 582 l 159 207 q 159 185 161 127 q 163 69 165 57 q 167 45 171 40 q 175 36 188 32 q 201 28 242 27 l 246 23 l 246 0 l 242 -3 q 216 0 160 0 q 87 0 32 -3 z"},"+":{"x_min":0,"x_max":500,"ha":500,"o":"m 485 281 l 278 281 l 278 74 l 222 74 l 222 281 l 15 281 l 15 336 l 222 336 l 222 543 l 278 543 l 278 336 l 485 336 z"},"G":{"x_min":0,"x_max":763,"ha":763,"o":"m 731 266 l 731 251 l 729 246 l 706 231 q 697 226 695 223 q 694 220 692 194 q 689 168 689 130 q 689 88 695 38 l 692 33 q 558 -18 417 -18 q 309 -18 221 23 q 134 64 83 145 q 31 225 31 336 q 31 505 147 604 q 262 704 448 704 q 585 704 694 658 l 697 652 q 688 620 677 515 l 673 512 l 650 512 l 646 516 l 644 567 q 643 593 641 597 q 639 602 630 609 q 622 616 585 631 q 549 646 512 654 q 476 661 434 661 q 344 661 275 624 q 207 586 172 515 q 137 444 137 357 q 137 268 174 190 q 212 113 282 69 q 353 26 446 26 q 486 26 529 34 q 571 42 598 57 q 603 72 603 120 l 603 174 q 603 212 598 222 q 593 231 573 235 q 554 239 490 240 l 486 245 l 486 266 l 490 271 l 520 270 q 597 267 645 267 q 673 267 727 270 z"},"q":{"x_min":0,"x_max":560,"ha":560,"o":"m 484 464 l 502 453 q 488 415 485 393 q 481 372 479 325 q 477 278 477 217 l 477 -91 q 477 -102 479 -160 q 481 -219 483 -229 q 485 -238 490 -243 q 495 -247 501 -248 q 507 -250 553 -252 l 558 -256 l 558 -277 l 554 -281 q 493 -277 436 -277 q 384 -277 319 -281 l 315 -277 l 315 -256 l 319 -252 q 366 -250 372 -248 q 378 -247 383 -242 q 388 -237 389 -227 q 391 -217 393 -162 q 396 -106 396 -79 l 396 66 l 291 1 q 279 -6 277 -7 q 275 -8 262 -10 q 249 -11 232 -11 q 143 -11 91 54 q 39 120 39 209 q 39 269 62 323 q 79 363 118 391 q 130 399 205 441 q 251 466 306 466 q 368 466 434 432 z m 396 375 q 379 392 345 409 q 311 426 272 426 q 208 426 167 375 q 126 325 126 243 q 126 188 147 139 q 167 89 202 67 q 237 45 278 45 q 343 45 396 110 q 397 232 397 250 q 397 331 396 375 z"},"d":{"x_min":0,"x_max":611,"ha":611,"o":"m 329 662 l 329 683 l 333 687 q 426 698 490 723 l 499 717 q 494 661 494 492 l 494 172 q 494 123 495 86 q 497 49 501 42 q 506 36 516 31 q 526 27 573 23 l 577 19 l 577 0 l 573 -4 q 520 0 491 0 q 464 0 416 -4 l 410 1 q 412 49 412 68 q 412 71 412 87 q 385 67 358 43 q 319 8 307 0 q 284 -12 243 -12 q 175 -12 128 21 q 81 55 61 106 q 41 158 41 212 q 41 267 62 318 q 83 369 121 393 q 159 416 204 441 q 250 466 294 466 q 356 466 412 436 l 410 544 q 409 601 407 623 q 405 646 402 650 q 399 654 392 656 q 385 658 333 658 z m 412 352 q 382 386 345 404 q 308 422 271 422 q 230 422 195 400 q 159 378 144 334 q 128 291 128 239 q 128 154 171 102 q 214 50 280 50 q 315 50 343 67 q 371 83 388 111 q 406 139 409 167 q 412 194 412 269 z"},"1":{"x_min":0,"x_max":500,"ha":500,"o":"m 75 552 l 66 555 l 61 595 l 66 600 q 115 614 189 645 q 264 676 296 693 l 309 688 q 301 474 301 431 l 301 250 q 301 183 303 124 q 304 65 307 55 q 310 44 317 39 q 324 33 337 31 q 350 29 413 26 l 416 22 l 416 0 l 413 -4 q 306 0 262 0 q 229 0 99 -4 l 96 0 l 96 22 l 100 26 q 173 31 183 34 q 194 36 199 42 q 205 48 208 65 q 212 83 214 167 q 216 250 216 252 l 216 445 q 216 586 216 599 q 215 611 207 611 q 205 611 202 610 q 198 609 180 601 l 132 580 q 102 566 75 552 z"},"5":{"x_min":0,"x_max":500,"ha":500,"o":"m 64 7 q 52 45 16 133 l 17 139 l 34 149 l 40 147 q 80 74 90 64 q 100 54 136 40 q 171 27 211 27 q 260 27 298 48 q 336 70 355 112 q 374 154 374 207 q 374 259 355 297 q 337 335 299 354 q 262 374 218 374 q 191 374 169 367 q 146 359 132 348 q 117 336 96 314 l 76 320 l 82 425 q 83 455 83 485 l 83 572 q 83 611 81 646 q 80 668 80 674 l 86 679 q 161 673 256 673 q 329 673 431 679 l 433 674 q 429 650 429 630 q 429 620 431 596 l 426 593 q 370 597 276 597 q 149 597 128 596 q 121 538 118 393 q 158 422 190 432 q 223 443 260 443 q 313 443 362 418 q 411 394 435 348 q 459 301 459 248 q 459 148 378 65 q 296 -18 168 -18 q 134 -18 112 -12 q 90 -6 64 7 z"}}}
